#!OML:ASF I:\Actors\actors\Patient Classification 2\Patient 1\Session 1\actor1.ASF
:FULLY-SPECIFIED
:DEGREES
347
root -0.654939 18.8041 4.51639 4.76593 5.50492 -3.06162
lowerback 7.18075 5.17054 -6.45463
upperback -2.06123 6.01524 -4.43361
thorax -6.3835 3.10868 -1.82979
lowerneck -14.5974 -7.27315 -4.85382
upperneck 21.1127 -12.3204 13.7469
head 10.3904 -4.61189 3.95788
rclavicle -2.98177e-015 3.18055e-014
rhumerus 37.1252 14.604 -36.5266
rradius 84.3414
rwrist 34.9835
rhand -38.5596 -43.9071
rfingers 7.12502
rthumb -11.579 -73.5672
lclavicle -2.98177e-015 3.18055e-014
lhumerus -31.8903 -37.7287 90.5533
lradius 122.719
lwrist 42.1039
lhand -17.6709 -21.1076
lfingers 7.12502
lthumb 8.58791 8.69774
rfemur 0 0 0
rtibia 0
rfoot 0 0
rtoes 0
lfemur -11.8012 -9.90666 -10.6258
ltibia 23.7859
lfoot -20.0335 9.37005
ltoes -56.0496
348
root -0.654724 18.8036 4.50883 4.69785 5.20851 -2.98745
lowerback 7.20101 5.2566 -6.56759
upperback -2.06883 6.11735 -4.40499
thorax -6.42152 3.16344 -1.7564
lowerneck -14.5083 -7.24322 -4.92899
upperneck 21.32 -12.2552 13.6152
head 10.4343 -4.59676 3.93995
rclavicle 1.11916e-013 -4.77083e-014
rhumerus 37.4146 17.335 -36.7807
rradius 84.5896
rwrist 35.5703
rhand -38.6927 -43.6691
rfingers 7.12502
rthumb -11.7073 -73.322
lclavicle 1.11916e-013 -4.77083e-014
lhumerus -32.0426 -37.6163 90.8916
lradius 122.708
lwrist 42.1688
lhand -17.7489 -21.0937
lfingers 7.12502
lthumb 8.51264 8.71472
rfemur 0 0 0
rtibia 0
rfoot 0 0
rtoes 0
lfemur -11.6566 -9.76883 -10.7543
ltibia 23.7768
lfoot -20.1109 9.51893
ltoes -56.0524
349
root -0.652127 18.8022 4.50106 4.57884 4.92339 -2.91724
lowerback 7.23585 5.29176 -6.67204
upperback -2.03644 6.15556 -4.33981
thorax -6.42688 3.18645 -1.63888
lowerneck -14.4688 -7.17751 -5.05612
upperneck 21.5143 -12.1164 13.4556
head 10.4761 -4.55413 3.93031
rclavicle 1.05555e-013 -1.43125e-014
rhumerus 37.536 20.2758 -37.0222
rradius 84.7501
rwrist 36.0891
rhand -38.9398 -43.3619
rfingers 7.12502
rthumb -11.9456 -73.0011
lclavicle 1.05555e-013 -1.43125e-014
lhumerus -31.9807 -37.3533 91.0814
lradius 122.619
lwrist 42.2738
lhand -17.8187 -21.0644
lfingers 7.12502
lthumb 8.44531 8.74679
rfemur 0 0 0
rtibia 0
rfoot 0 0
rtoes 0
lfemur -11.4537 -9.63708 -10.8907
ltibia 23.7682
lfoot -20.1965 9.60421
ltoes -55.9512
350
root -0.648005 18.7999 4.49358 4.42679 4.65848 -2.83911
lowerback 7.26838 5.2906 -6.77503
upperback -1.93115 6.15102 -4.26336
thorax -6.35303 3.18688 -1.49824
lowerneck -14.6035 -7.08709 -5.15321
upperneck 21.6825 -11.9302 13.245
head 10.5316 -4.4868 3.89921
rclavicle 2.38542e-015 -2.22639e-014
rhumerus 37.4864 23.2052 -37.1674
rradius 84.8594
rwrist 36.6591
rhand -38.8222 -42.9745
rfingers 7.12502
rthumb -11.8322 -72.6202
lclavicle 2.38542e-015 -2.22639e-014
lhumerus -31.7035 -37.0383 91.0806
lradius 122.498
lwrist 42.3784
lhand -17.8589 -21.0746
lfingers 7.12502
lthumb 8.40646 8.73814
rfemur 0 0 0
rtibia 0
rfoot 0 0
rtoes 0
lfemur -11.2266 -9.46569 -11.0497
ltibia 23.7643
lfoot -20.2489 9.66945
ltoes -55.9804
351
root -0.643054 18.7968 4.48685 4.2768 4.4478 -2.71418
lowerback 7.32499 5.30466 -6.91965
upperback -1.81911 6.15759 -4.24044
thorax -6.28493 3.19285 -1.39478
lowerneck -14.8451 -7.02484 -5.13396
upperneck 21.8872 -11.8116 13.0186
head 10.6212 -4.43661 3.83023
rclavicle 8.07066e-014 -1.43125e-014
rhumerus 36.9617 25.925 -37.3309
rradius 85.0412
rwrist 37.4284
rhand -38.4643 -42.9306
rfingers 7.12502
rthumb -11.487 -72.5959
lclavicle 8.07066e-014 -1.43125e-014
lhumerus -31.4485 -36.9088 91.0243
lradius 122.415
lwrist 42.4646
lhand -17.8294 -20.9936
lfingers 7.12502
lthumb 8.43499 8.81791
rfemur 0 0 0
rtibia 0
rfoot 0 0
rtoes 0
lfemur -11.0314 -9.28223 -11.2613
ltibia 23.7772
lfoot -20.2346 9.72191
ltoes -56.1199
352
root -0.637751 18.793 4.48092 4.12378 4.32398 -2.62419
lowerback 7.3872 5.36628 -7.02088
upperback -1.74362 6.22617 -4.26648
thorax -6.25098 3.22756 -1.37811
lowerneck -14.9412 -7.02084 -5.04022
upperneck 22.0314 -11.8041 12.8541
head 10.6734 -4.43311 3.7564
rclavicle -8.3092e-014 4.92986e-014
rhumerus 35.7495 28.3002 -37.6434
rradius 85.2443
rwrist 38.2072
rhand -38.5961 -42.7586
rfingers 7.12502
rthumb -11.6141 -72.4167
lclavicle -8.3092e-014 4.92986e-014
lhumerus -31.2294 -37.0529 91.0063
lradius 122.326
lwrist 42.5664
lhand -17.73 -20.779
lfingers 7.12502
lthumb 8.53094 9.02865
rfemur 0 0 0
rtibia 0
rfoot 0 0
rtoes 0
lfemur -10.8618 -9.15716 -11.4209
ltibia 23.8048
lfoot -20.2016 9.71537
ltoes -56.1859
353
root -0.63146 18.7884 4.47637 3.95021 4.2852 -2.58189
lowerback 7.42866 5.41988 -7.09535
upperback -1.65793 6.29122 -4.26477
thorax -6.19437 3.25978 -1.34341
lowerneck -14.9978 -7.02918 -4.99011
upperneck 22.1574 -11.8029 12.698
head 10.7152 -4.43782 3.69247
rclavicle -1.11518e-013 4.13472e-014
rhumerus 34.1652 30.3265 -37.9682
rradius 85.4041
rwrist 38.6931
rhand -39.1765 -42.227
rfingers 7.12502
rthumb -12.1738 -71.8527
lclavicle -1.11518e-013 4.13472e-014
lhumerus -30.9729 -37.2246 91.0137
lradius 122.217
lwrist 42.6705
lhand -17.6339 -20.515
lfingers 7.12502
lthumb 8.62365 9.28883
rfemur 0 0 0
rtibia 0
rfoot 0 0
rtoes 0
lfemur -10.6886 -9.04992 -11.5188
ltibia 23.8439
lfoot -20.1579 9.60114
ltoes -56.2159
354
root -0.624103 18.7839 4.47307 3.80522 4.2819 -2.55841
lowerback 7.41137 5.44629 -7.22784
upperback -1.57814 6.32374 -4.19872
thorax -6.12351 3.27914 -1.2002
lowerneck -15.0336 -7.03077 -5.07186
upperneck 22.2989 -11.7716 12.5828
head 10.7665 -4.43578 3.67105
rclavicle -4.77083e-015 3.18055e-015
rhumerus 32.3776 32.0074 -38.1809
rradius 85.5795
rwrist 39.1066
rhand -39.5537 -41.8659
rfingers 7.12502
rthumb -12.5375 -71.4697
lclavicle -4.77083e-015 3.18055e-015
lhumerus -30.7806 -37.3248 91.0622
lradius 122.146
lwrist 42.7604
lhand -17.6035 -20.2357
lfingers 7.12502
lthumb 8.65302 9.56694
rfemur 0 0 0
rtibia 0
rfoot 0 0
rtoes 0
lfemur -10.5603 -8.9607 -11.5882
ltibia 23.8934
lfoot -20.136 9.44131
ltoes -56.1696
355
root -0.616723 18.7796 4.46891 3.7023 4.33016 -2.53356
lowerback 7.37709 5.44701 -7.39965
upperback -1.50948 6.32099 -4.10407
thorax -6.06133 3.28312 -1.00033
lowerneck -15.0073 -7.01412 -5.22085
upperneck 22.3535 -11.701 12.5249
head 10.7781 -4.42163 3.68786
rclavicle 1.78906e-015 -3.49861e-014
rhumerus 30.3274 33.2913 -38.3663
rradius 85.7676
rwrist 39.6777
rhand -39.509 -41.9833
rfingers 7.12502
rthumb -12.4944 -71.5897
lclavicle 1.78906e-015 -3.49861e-014
lhumerus -30.645 -37.4131 91.1163
lradius 122.1
lwrist 42.8099
lhand -17.5647 -20.1913
lfingers 7.12502
lthumb 8.69047 9.60983
rfemur 0 0 0
rtibia 0
rfoot 0 0
rtoes 0
lfemur -10.5076 -8.89984 -11.6414
ltibia 23.9458
lfoot -20.0933 9.23278
ltoes -55.9915
